<svg width="42" height="41" viewBox="0 0 42 41" fill="none" xmlns="http://www.w3.org/2000/svg">
<path d="M21.0001 16.2383V40.0478" stroke="black" stroke-width="1.5" stroke-linejoin="round"/>
<path fill-rule="evenodd" clip-rule="evenodd" d="M1 8.61905L21 1L41 8.61905V32.4286L21 40.0476L1 32.4286V8.61905Z" stroke="black" stroke-width="1.5" stroke-linejoin="round"/>
<path d="M41 8.61914L21 16.2382L1 8.61914" stroke="black" stroke-width="1.5" stroke-linejoin="round"/>
<path d="M30.7368 12.5292L10.7368 4.91016" stroke="black" stroke-width="1.5" stroke-linejoin="round"/>
<path fill-rule="evenodd" clip-rule="evenodd" d="M38.0698 20.3274L29.6508 23.2083L27.9746 18.2941L36.3946 15.4141L38.0698 20.3274Z" stroke="black" stroke-width="1.5"/>
<path d="M33.7067 24.4805L35.4219 24.991L33.7095 30.7558L23.8657 27.8253L25.5772 22.0596L26.8572 22.4405" stroke="black" stroke-width="1.5"/>
<path d="M7.67539 22.704L5.77349 20.0479L3.87158 21.2012" stroke="black" stroke-width="1.5" stroke-linecap="round"/>
<path d="M5.76184 21V25.7619" stroke="black" stroke-width="1.5" stroke-linecap="round"/>
<path d="M13.381 24.9594L11.4791 22.3022L9.57715 23.4556" stroke="black" stroke-width="1.5" stroke-linecap="round"/>
<path d="M11.4762 22.9048V27.6667" stroke="black" stroke-width="1.5" stroke-linecap="round"/>
<path d="M3.85693 28.8198L13.3665 32.5779" stroke="black" stroke-width="1.5" stroke-linecap="round"/>
</svg>
