<svg width="50" height="33" viewBox="0 0 50 33" fill="none" xmlns="http://www.w3.org/2000/svg">
<path d="M32 9.2666H40.2078C40.8908 9.2666 41.5304 9.6045 41.9159 10.1687L45.4333 16.4999H46.4667C47.6292 16.4999 48.5333 17.2667 48.5333 18.7826V25.7968C48.5333 26.9387 47.6075 27.8666 46.4667 27.8666H44.4" stroke="black" stroke-width="1.5"/>
<path d="M34.0669 17.5333H41.3002L43.3669 16.5H45.4336" stroke="black" stroke-width="1.5"/>
<path d="M15.4667 27.8667H32V1H1V27.8667H7.2" stroke="black" stroke-width="1.5"/>
<path fill-rule="evenodd" clip-rule="evenodd" d="M44.4 27.876C44.4 30.1535 42.5452 32 40.2574 32C37.9696 32 36.1147 30.1535 36.1147 27.876C36.1147 25.5985 37.9696 23.752 40.2574 23.752C42.5452 23.752 44.4 25.5985 44.4 27.876Z" stroke="black" stroke-width="1.5"/>
<path fill-rule="evenodd" clip-rule="evenodd" d="M15.485 27.876C15.485 30.1535 13.6301 32 11.3423 32C9.05454 32 7.19971 30.1535 7.19971 27.876C7.19971 25.5985 9.05454 23.752 11.3423 23.752C13.6301 23.752 15.485 25.5985 15.485 27.876Z" stroke="black" stroke-width="1.5"/>
</svg>
