<svg width="42" height="41" fill="none" xmlns="http://www.w3.org/2000/svg"><path d="M21 16.238v23.81" stroke="#000" stroke-width="1.5" stroke-linejoin="round"/><path clip-rule="evenodd" d="M1 8.62L21 1l20 7.619v23.81l-20 7.619-20-7.62V8.62z" stroke="#000" stroke-width="1.5" stroke-linejoin="round"/><path d="M41 8.62l-20 7.618L1 8.62m29.737 3.91l-20-7.62" stroke="#000" stroke-width="1.5" stroke-linejoin="round"/><path clip-rule="evenodd" d="M38.07 20.327l-8.42 2.881-1.675-4.914 8.42-2.88 1.675 4.913z" stroke="#000" stroke-width="1.5"/><path d="M33.707 24.48l1.715.511-1.712 5.765-9.844-2.93 1.711-5.766 1.28.38" stroke="#000" stroke-width="1.5"/><path d="M7.675 22.704l-1.902-2.656L3.872 21.2m1.89-.2v4.762m7.619-.802l-1.902-2.658-1.902 1.154m1.899-.551v4.762M3.857 28.82l9.51 3.758" stroke="#000" stroke-width="1.5" stroke-linecap="round"/></svg>