<svg width="50" height="33" fill="none" xmlns="http://www.w3.org/2000/svg"><path d="M32 9.267h8.208a2.07 2.07 0 011.708.902l3.517 6.33h1.034c1.162 0 2.066.768 2.066 2.284v7.014a2.07 2.07 0 01-2.066 2.07H44.4" stroke="#000" stroke-width="1.5"/><path d="M34.067 17.533H41.3l2.067-1.033h2.067M15.467 27.867H32V1H1v26.867h6.2" stroke="#000" stroke-width="1.5"/><path clip-rule="evenodd" d="M44.4 27.876c0 2.277-1.855 4.124-4.143 4.124-2.287 0-4.142-1.846-4.142-4.124 0-2.277 1.855-4.124 4.142-4.124 2.288 0 4.143 1.847 4.143 4.124zm-28.915 0c0 2.277-1.855 4.124-4.143 4.124C9.055 32 7.2 30.154 7.2 27.876c0-2.277 1.855-4.124 4.142-4.124 2.288 0 4.143 1.847 4.143 4.124z" stroke="#000" stroke-width="1.5"/></svg>