<svg width="59" height="41" fill="none" xmlns="http://www.w3.org/2000/svg"><path d="M58.142 37.474h-23.1V1h-3.648m3.648 35.258H30.18" stroke="#000" stroke-width="1.5"/><path d="M2.215 28.964v-9.727h12.158l4.864 4.864h15.805" stroke="#000" stroke-width="1.5"/><path clip-rule="evenodd" d="M10.726 35.04a4.867 4.867 0 01-4.863 4.866A4.86 4.86 0 011 35.044a4.867 4.867 0 014.863-4.867 4.86 4.86 0 014.863 4.862zm19.454 0a4.866 4.866 0 01-4.864 4.866 4.86 4.86 0 01-4.863-4.862 4.867 4.867 0 014.863-4.867 4.86 4.86 0 014.863 4.862z" stroke="#000" stroke-width="1.5"/><path d="M31.563 24.68S30.15 13.158 21.547 7.079H9.511v12.158m10.942 17.021h-9.727M9.51 7.08H7.08m30.394 13.373h15.805v14.59M37.474 8.295h12.158v12.158" stroke="#000" stroke-width="1.5"/></svg>