<svg width="68" height="68" fill="none" xmlns="http://www.w3.org/2000/svg"><circle cx="34" cy="34" r="34" fill="#0D1B2B"/><path d="M41 28.4h6.354c.53 0 1.024.262 1.323.698L51.4 34h.8c.9 0 1.6.593 1.6 1.767v5.43c0 .884-.717 1.603-1.6 1.603h-1.6m-22.4 0H41V22H17v20.8h4.8" stroke="#fff" stroke-width="1.6"/><path clip-rule="evenodd" d="M50.6 42.807A3.2 3.2 0 0147.393 46a3.2 3.2 0 01-3.208-3.193 3.2 3.2 0 013.208-3.193 3.2 3.2 0 013.207 3.193zm-22.386 0A3.2 3.2 0 0125.007 46a3.2 3.2 0 01-3.207-3.193 3.2 3.2 0 013.207-3.193 3.2 3.2 0 013.207 3.193z" stroke="#fff" stroke-width="1.6"/><path d="M41 42.8h3.2m-1.6-8h5.6l1.6-.8h1.6" stroke="#fff" stroke-width="1.6"/></svg>