<svg width="68" height="68" fill="none" xmlns="http://www.w3.org/2000/svg"><circle cx="34" cy="34" r="34" fill="#0D1B2B"/><path d="M23.284 40.21h-2.356m0-6.285l-3.142-.785v-3.142m14.139 10.997v-3.928h-7.07v3.928m8.641-.785h2.357m0-6.285l3.142-.785v-3.142M19.357 43.352v2.356c0 .434.352.786.785.786H22.5a.785.785 0 00.785-.786v-2.356m10.211 0v2.356c0 .434.352.786.786.786h2.356a.785.785 0 00.786-.786v-2.356m10.997 0v2.356c0 .434.352.786.786.786h2.356a.785.785 0 00.786-.786v-2.356" stroke="#fff" stroke-width="1.5"/><mask id="a" maskUnits="userSpaceOnUse" x="17" y="19" width="38" height="29"><path fill-rule="evenodd" clip-rule="evenodd" d="M17 47.28h37.705V19H17v28.28z" fill="#fff"/></mask><g mask="url(#a)" stroke="#fff" stroke-width="1.5"><path clip-rule="evenodd" d="M23.284 33.925h10.212v-3.927H23.284v3.927z"/><path d="M35.853 22.928V34.71l.785.785c.393.393.787.86.786 1.571 0 .566.002 2.308 0 3.142h1.57v3.142H17.787v-3.14h1.57c-.002-.834 0-2.576 0-3.142 0-.711.393-1.178.786-1.57l.786-.786V22.928"/><path d="M35.853 27.64l-.966-.896c-.577-.668-1.294-.674-2.176-.674H24.07c-.882 0-1.6.006-2.177.674l-.965.897"/><path d="M17.786 28.427v-8.641h21.209v8.64"/><path d="M38.995 19.786h.785l14.14 9.426v14.14H40.566"/></g></svg>