<svg width="68" height="68" fill="none" xmlns="http://www.w3.org/2000/svg"><circle cx="34" cy="34" r="34" fill="#0D1B2B"/><path clip-rule="evenodd" d="M21.419 28.56c-.414-.151-4.149 1.625-5.354 2.75-.356.331 2.442 8.807 7.345 13.668 6.068 6.015 13.422 6.655 13.702 6.705.397.07 2.585-4.15 2.278-4.774-.307-.625-4.875-3.613-5.356-3.709-.48-.096-1.888 2.226-2.293 2.178-.405-.048-3.626-1.9-4.815-3.018-3.231-3.041-4.3-5.601-4.45-5.886-.31-.585 2.514-1.787 2.447-2.286-.066-.5-3.09-5.477-3.504-5.628z" stroke="#fff" stroke-width="1.5"/><path d="M28.789 30.158c-.044-.7.87-2.185 2.147-2.36 1.132-.156 2.368.253 2.575 1.856.263 2.03-1.72 3.259-4.505 5.284v.827h5.462m5.574.77v-8.752H38.94l-2.685 4.585v1.27h5.192" stroke="#fff" stroke-width="1.5"/><path clip-rule="evenodd" d="M43.141 27.048v9.44-9.44z" stroke="#fff" stroke-width="1.5"/><path d="M47.076 36.488v-3.85c0-1.031-3.216-.872-3.985-.48" stroke="#fff" stroke-width="1.5"/><ellipse cx="37.593" cy="32.174" rx="14.262" ry="16.174" transform="rotate(-11 37.593 32.174)" stroke="#fff" stroke-width="1.5"/></svg>