<svg width="39" height="41" viewBox="0 0 39 41" fill="none" xmlns="http://www.w3.org/2000/svg">
<path d="M28.2762 14.6381V1H6.11429L1 6.11429V36.8H17.1952" stroke="black" stroke-width="1.5"/>
<path d="M2.70477 6.96649H6.96668V2.70459" stroke="black" stroke-width="1.5"/>
<path fill-rule="evenodd" clip-rule="evenodd" d="M32.5381 20.6045L35.0952 24.014H22.3095V20.6045L21.4572 18.0474L35.9476 15.4902C35.9476 16.8754 33.8431 20.1519 32.5381 20.6045Z" stroke="black" stroke-width="1.5" stroke-linejoin="round"/>
<path d="M32.5381 20.6049H22.3095" stroke="black" stroke-width="1.5"/>
<path d="M33.3905 24.0142V26.3812C33.3905 29.3109 30.91 31.6856 27.85 31.6856C24.7899 31.6856 22.3095 29.3109 22.3095 26.3812V24.0142" stroke="black" stroke-width="1.5"/>
<path d="M37.6524 39.357C37.6524 36.533 35.3621 34.2427 32.5381 34.2427H24.0143C21.1904 34.2427 18.9 36.533 18.9 39.357" stroke="black" stroke-width="1.5" stroke-linecap="round"/>
<path fill-rule="evenodd" clip-rule="evenodd" d="M12.9333 24.8666C12.9333 26.7495 11.4067 28.2761 9.52378 28.2761C7.64087 28.2761 6.11426 26.7495 6.11426 24.8666C6.11426 22.9836 7.64087 21.457 9.52378 21.457C11.4067 21.457 12.9333 22.9836 12.9333 24.8666Z" stroke="black" stroke-width="1.5"/>
<path d="M11.2286 27.4238V32.5381L9.52379 31.6857L7.81903 32.5381V27.4238" stroke="black" stroke-width="1.5"/>
<path d="M6.11426 11.2284H22.3095" stroke="black" stroke-width="1.5"/>
<path d="M6.11426 14.6381H19.7524" stroke="black" stroke-width="1.5"/>
<path d="M6.11426 18.0478H16.3428" stroke="black" stroke-width="1.5"/>
</svg>
