<svg width="39" height="41" fill="none" xmlns="http://www.w3.org/2000/svg"><path d="M28.276 14.638V1H6.114L1 6.114V36.8h16.195" stroke="#000" stroke-width="1.5"/><path d="M2.705 6.966h4.262V2.705" stroke="#000" stroke-width="1.5"/><path clip-rule="evenodd" d="M32.538 20.605l2.557 3.409H22.31v-3.41l-.853-2.557 14.49-2.557c0 1.385-2.104 4.662-3.409 5.115z" stroke="#000" stroke-width="1.5" stroke-linejoin="round"/><path d="M32.538 20.605H22.31m11.08 3.409v2.367c0 2.93-2.48 5.305-5.54 5.305s-5.54-2.375-5.54-5.305v-2.367" stroke="#000" stroke-width="1.5"/><path d="M37.652 39.357a5.115 5.115 0 00-5.114-5.114h-8.524a5.115 5.115 0 00-5.114 5.114" stroke="#000" stroke-width="1.5" stroke-linecap="round"/><path clip-rule="evenodd" d="M12.933 24.867a3.41 3.41 0 11-6.819 0 3.41 3.41 0 016.82 0z" stroke="#000" stroke-width="1.5"/><path d="M11.229 27.424v5.114l-1.705-.852-1.705.852v-5.114M6.114 11.228H22.31m-16.196 3.41h13.638m-13.638 3.41h10.229" stroke="#000" stroke-width="1.5"/></svg>