<svg width="39" height="41" viewBox="0 0 39 41" fill="none" xmlns="http://www.w3.org/2000/svg">
<path fill-rule="evenodd" clip-rule="evenodd" d="M23.5021 6.11429L20.945 9.52381H33.7307V6.11429L34.5831 3.55714L20.0926 1C20.0926 2.38512 22.1971 5.66167 23.5021 6.11429Z" stroke="black" stroke-width="1.5" stroke-linejoin="round"/>
<path d="M23.5021 6.11418H33.7306" stroke="black" stroke-width="1.5"/>
<path d="M22.6497 9.52393V11.8918C22.6497 14.8206 25.1301 17.1954 28.1902 17.1954C31.2502 17.1954 33.7307 14.8206 33.7307 11.8918V9.52393" stroke="black" stroke-width="1.5"/>
<path d="M37.9926 37.6526V25.7193C37.9926 22.8953 35.7022 20.605 32.8783 20.605H22.1911C20.8682 20.605 19.6195 21.2195 18.8131 22.268L14.9783 26.5716L12.4211 24.0145" stroke="black" stroke-width="1.5" stroke-linecap="round" stroke-linejoin="round"/>
<path d="M20.945 39.3572V27.4238L16.7785 32.1861C15.8043 33.2993 14.091 33.3556 13.0451 32.3097L5.60211 24.8667" stroke="black" stroke-width="1.5" stroke-linecap="round" stroke-linejoin="round"/>
<path d="M33.7306 27.4238V39.3572" stroke="black" stroke-width="1.5" stroke-linecap="round" stroke-linejoin="round"/>
<path d="M32.0259 20.605L21.7973 35.0955H33.7306" stroke="black" stroke-width="1.5" stroke-linejoin="round"/>
<path fill-rule="evenodd" clip-rule="evenodd" d="M13.4201 20.645L8.23333 23.5789L1.60266 16.949L6.79025 14.0151L13.4201 20.645Z" stroke="black" stroke-width="1.5" stroke-linecap="round" stroke-linejoin="round"/>
<path d="M8.23288 23.5788L1.60306 16.949L1.00043 16.3463L5.25637 7.72705L11.8862 14.3577" stroke="black" stroke-width="1.5" stroke-linecap="round" stroke-linejoin="round"/>
</svg>
