<svg width="39" height="41" fill="none" xmlns="http://www.w3.org/2000/svg"><path clip-rule="evenodd" d="M23.502 6.114l-2.557 3.41h12.786v-3.41l.852-2.557L20.093 1c0 1.385 2.104 4.662 3.41 5.114z" stroke="#000" stroke-width="1.5" stroke-linejoin="round"/><path d="M23.502 6.114h10.229M22.65 9.524v2.368c0 2.929 2.48 5.303 5.54 5.303s5.54-2.374 5.54-5.303V9.524" stroke="#000" stroke-width="1.5"/><path d="M37.993 37.653V25.719a5.115 5.115 0 00-5.115-5.114H22.191a4.262 4.262 0 00-3.378 1.663l-3.835 4.304-2.557-2.557" stroke="#000" stroke-width="1.5" stroke-linecap="round" stroke-linejoin="round"/><path d="M20.945 39.357V27.424l-4.166 4.762a2.558 2.558 0 01-3.734.124l-7.443-7.443m28.128 2.557v11.933" stroke="#000" stroke-width="1.5" stroke-linecap="round" stroke-linejoin="round"/><path d="M32.026 20.605l-10.229 14.49h11.934" stroke="#000" stroke-width="1.5" stroke-linejoin="round"/><path clip-rule="evenodd" d="M13.42 20.645l-5.187 2.934-6.63-6.63 5.187-2.934 6.63 6.63z" stroke="#000" stroke-width="1.5" stroke-linecap="round" stroke-linejoin="round"/><path d="M8.233 23.579l-6.63-6.63L1 16.346l4.256-8.619 6.63 6.63" stroke="#000" stroke-width="1.5" stroke-linecap="round" stroke-linejoin="round"/></svg>