<svg width="30" height="30" fill="none" xmlns="http://www.w3.org/2000/svg"><g clip-path="url(#clip0)"><path d="M20.156 9.04l-2.203-.493c-.515-.117-1.031.14-1.219.61l-1.03 2.39c-.188.422-.071.937.304 1.242l.937.774c-.656 1.218-1.687 2.226-2.906 2.906l-.773-.938a1.057 1.057 0 00-1.243-.304l-2.39 1.007a1.09 1.09 0 00-.61 1.243l.493 2.203c.117.492.562.82 1.054.82C16.312 20.5 21 15.86 21 10.094a1.1 1.1 0 00-.844-1.055zm-9.539 10.335l-.492-2.11 2.297-.984 1.312 1.594c2.32-1.102 3.516-2.297 4.618-4.617l-1.594-1.313.984-2.297 2.133.493c-.023 5.086-4.172 9.21-9.258 9.234z" fill="#000"/><circle cx="15" cy="15" r="15" stroke="#222" stroke-width=".5"/></g><defs><clipPath id="clip0"><path fill="#fff" d="M0 0h30v30H0z"/></clipPath></defs></svg>