<svg width="68" height="68" fill="none" xmlns="http://www.w3.org/2000/svg"><circle cx="34" cy="34" r="34" fill="#0D1B2B"/><path clip-rule="evenodd" d="M50.4 17.305c-1.046-1.047-4.662.857-5.709 1.902l-16.94 16.94c-1.133 1.133-6.075 7.622-4.945 8.752 1.13 1.13 7.619-3.812 8.751-4.945l16.94-16.94c1.046-1.047 2.95-4.663 1.903-5.71z" stroke="#fff" stroke-width="1.5" stroke-linejoin="round"/><path d="M35.791 35.72l3.89 3.89 4.337 8.143 1.934-.03-3.724-18.442m-3.809-3.805l-18.437-3.723-.03 1.934 8.142 4.336 3.893 3.893m-1.569 9.177l.878 6.78-1.83.832-2.99-4.984m.136-6.434l-6.779-.878-.833 1.83 4.984 2.99" stroke="#fff" stroke-width="1.5" stroke-linejoin="round"/></svg>