<svg width="68" height="68" fill="none" xmlns="http://www.w3.org/2000/svg"><circle cx="34" cy="34" r="34" fill="#0D1B2B"/><path d="M32.08 35.023v-.75h-.75v.75h.75zm-2.026-9.938v-.75h-.75v.75h.75zm0 1.464v.75h.75v-.75h-.75zm-.02 0v-.75h-.75v.75h.75zm0 6.428v.75h.75v-.75h-.75zm-1.649 0v-.75h-.75v.75h.75zm0 2.046h-.75v.75h.75v-.75zm1.649 0h.75v-.75h-.75v.75zm0 1.938v.75h.75v-.75h-.75zm-1.649 0v-.75h-.75v.75h.75zm0 2.047h-.75v.75h.75v-.75zm1.649 0h.75v-.75h-.75v.75zm0 3.984h-.75v.75h.75v-.75zm2.046 0v.75h.75v-.75h-.75zm0-3.984v-.75h-.75v.75h.75zm4.533 0v.75h.75v-.75h-.75zm0-2.047h.75v-.75h-.75v.75zm-4.533 0h-.75v.75h.75v-.75zm.02-9.83v-.75h-.75v.75h.75zm0 5.846h-.75v.75h.75v-.75zM34 15.273c-10.343 0-18.727 8.384-18.727 18.727h1.5c0-9.514 7.713-17.227 17.227-17.227v-1.5zM52.727 34c0-10.343-8.384-18.727-18.727-18.727v1.5c9.514 0 17.227 7.713 17.227 17.227h1.5zM34 52.727c10.343 0 18.727-8.384 18.727-18.727h-1.5c0 9.514-7.713 17.227-17.227 17.227v1.5zM15.273 34c0 10.343 8.384 18.727 18.727 18.727v-1.5c-9.514 0-17.227-7.713-17.227-17.227h-1.5zm-.546 0c0-10.644 8.629-19.273 19.273-19.273v-1.5c-11.473 0-20.773 9.3-20.773 20.773h1.5zM34 53.273c-10.644 0-19.273-8.629-19.273-19.273h-1.5c0 11.473 9.3 20.773 20.773 20.773v-1.5zM53.273 34c0 10.644-8.629 19.273-19.273 19.273v1.5c11.472 0 20.773-9.3 20.773-20.773h-1.5zM34 14.727c10.644 0 19.273 8.629 19.273 19.273h1.5c0-11.473-9.3-20.773-20.773-20.773v1.5zm2.613 19.546H32.08v1.5h4.533v-1.5zm.018 0h-.018v1.5h.018v-1.5zm3.196-3.196a3.196 3.196 0 01-3.196 3.196v1.5a4.696 4.696 0 004.696-4.696h-1.5zm0-2.046v2.046h1.5v-2.046h-1.5zm-3.196-3.196a3.196 3.196 0 013.196 3.196h1.5a4.696 4.696 0 00-4.696-4.696v1.5zm-5.554 0h5.554v-1.5h-5.554v1.5zm-1.023 0h1.023v-1.5h-1.023v1.5zm.75.273v-1.023h-1.5v1.023h1.5zm0 .441v-.441h-1.5v.441h1.5zm-.77.75h.02v-1.5h-.02v1.5zm.75 5.678V26.55h-1.5v6.428h1.5zm-2.399.75h1.649v-1.5h-1.649v1.5zm.75 1.296v-2.046h-1.5v2.046h1.5zm.899-.75h-1.649v1.5h1.649v-1.5zm.75 2.688v-1.938h-1.5v1.938h1.5zm-2.399.75h1.649v-1.5h-1.649v1.5zm.75 1.297V36.96h-1.5v2.047h1.5zm.899-.75h-1.649v1.5h1.649v-1.5zm.75 4.734v-3.984h-1.5v3.984h1.5zm1.296-.75h-2.046v1.5h2.046v-1.5zm-.75-3.234v3.984h1.5v-3.984h-1.5zm5.283-.75H32.08v1.5h4.533v-1.5zm-.75-1.297v2.047h1.5V36.96h-1.5zm-3.783.75h4.533v-1.5H32.08v1.5zm-.75-2.688v1.938h1.5v-1.938h-1.5zm5.283-1.296h.018v-1.5h-.018v1.5zm.018 0a2.65 2.65 0 002.65-2.65h-1.5a1.15 1.15 0 01-1.15 1.15v1.5zm2.65-2.65v-2.046h-1.5v2.046h1.5zm0-2.046a2.65 2.65 0 00-2.65-2.65v1.5c.635 0 1.15.515 1.15 1.15h1.5zm-2.65-2.65H32.1v1.5h4.53v-1.5zm-5.281.75v5.846h1.5v-5.846h-1.5zm.75 6.596h4.513v-1.5H32.1v1.5z" fill="#fff"/></svg>