<svg width="45" height="43" fill="none" xmlns="http://www.w3.org/2000/svg"><path d="M19.116 19.116v19.07m18.117-20.023v-7.628" stroke="#000" stroke-width="1.5" stroke-linejoin="round"/><path clip-rule="evenodd" d="M19.116 1L1 9.581v.954l18.116 8.581 18.117-8.581V9.58L19.116 1z" stroke="#000" stroke-width="1.5" stroke-linejoin="round"/><path d="M28.651 14.349L9.793 5.416M22.93 36.38l-3.814 1.807L1 29.606v-19.07" stroke="#000" stroke-width="1.5" stroke-linejoin="round"/><path clip-rule="evenodd" d="M42.951 29.606c0 5.266-4.27 9.536-9.536 9.536-5.265 0-9.535-4.269-9.535-9.535s4.27-9.536 9.535-9.536c5.267 0 9.536 4.27 9.536 9.535z" stroke="#000" stroke-width="1.5" stroke-linejoin="round"/><path d="M28.652 25.791v7.628m2.86-7.628v7.628m3.814-7.628v7.628m2.86-7.628v7.628m.954 3.814L43.907 42" stroke="#000" stroke-width="1.5" stroke-linejoin="round"/></svg>