<svg width="68" height="68" fill="none" xmlns="http://www.w3.org/2000/svg"><circle cx="34" cy="34" r="34" fill="#0D1B2B"/><path clip-rule="evenodd" d="M34.008 16C32.55 18.07 22.82 22.316 19 22.316v15c0 7.052 14.167 14.767 15 14.99.833-.223 15-8.477 15-14.2v-15.79c-4.166 0-13.533-4.245-14.992-6.316z" stroke="#fff" stroke-width="1.5" stroke-linejoin="round"/><path d="M34 33.358v9.474m9.474-13.422v9.474L34 42.832l-9.474-3.948v-9.473" stroke="#fff" stroke-width="1.5" stroke-linejoin="round"/><path clip-rule="evenodd" d="M43.474 29.41L34 33.359l-9.474-3.947v-.79L34 24.674l9.474 3.947v.79z" stroke="#fff" stroke-width="1.5" stroke-linejoin="round"/><path d="M39.498 31.067l-10.21-4.43" stroke="#fff" stroke-width="1.5" stroke-linejoin="round"/></svg>