<svg width="68" height="68" fill="none" xmlns="http://www.w3.org/2000/svg"><circle cx="34" cy="34" r="34" fill="#0D1B2B"/><path d="M43.402 29.468v-5.957h-3.404v-3.405H28.083v3.405h-3.404v5.957" stroke="#fff" stroke-width="1.5" stroke-linejoin="round"/><path d="M37.444 20.106v-4.255h-6.808v4.255m-6.808 22.128s-3.582-6.831-4.256-9.66c0 0 9.019-5.466 14.468-6.49 5.45 1.024 14.468 6.49 14.468 6.49-.674 2.829-4.255 9.66-4.255 9.66" stroke="#fff" stroke-width="1.5" stroke-linejoin="round"/><path d="M14.466 43.618l3.196-2.09a1.939 1.939 0 012.31.14l1.192 1a1.94 1.94 0 002.348.115l1.794-1.233a1.938 1.938 0 012.303.078l1.365 1.08c.682.539 1.636.56 2.341.05l1.633-1.182a1.938 1.938 0 012.3.018l1.533 1.145a1.938 1.938 0 002.34-.011l1.467-1.121a1.937 1.937 0 012.3-.042l1.698 1.203a1.94 1.94 0 002.343-.075l1.298-1.05a1.937 1.937 0 012.305-.102l3.083 2.077m-39.149 4.574l3.196-2.09a1.939 1.939 0 012.31.14l1.192 1c.67.563 1.628.61 2.348.115l1.794-1.233a1.938 1.938 0 012.303.078l1.365 1.08c.682.539 1.636.56 2.341.05l1.633-1.182a1.937 1.937 0 012.3.018l1.533 1.145a1.938 1.938 0 002.34-.011l1.467-1.121a1.937 1.937 0 012.3-.042l1.698 1.203a1.94 1.94 0 002.343-.075l1.298-1.05a1.937 1.937 0 012.305-.102l3.083 2.077M34.04 26.064V38.83m-4.255-7.66v1.703" stroke="#fff" stroke-width="1.5" stroke-linejoin="round"/></svg>