<svg width="40" height="35" fill="none" xmlns="http://www.w3.org/2000/svg"><path d="M32.539 7.208c-.967.385-2.143.611-3.41.611" stroke="#000" stroke-width="1.5" stroke-linecap="round"/><path clip-rule="evenodd" d="M32.538 13.606v-6.4c1.545-.617 2.557-1.639 2.557-2.796 0-1.883-2.671-3.41-5.966-3.41-3.296 0-5.967 1.527-5.967 3.41 0 .926.649 1.765 1.699 2.38.516.301.858.831.858 1.429v5.387c0 1.633-1.101 2.742-2.664 3.313-1.514.553-2.45 1.556-2.45 2.631v4.795c0 2.171 3.816 3.931 8.523 3.931 4.708 0 8.524-1.76 8.524-3.931V19.55c0-1.075-.936-2.078-2.45-2.63-1.563-.572-2.664-1.681-2.664-3.314z" stroke="#000" stroke-width="1.5"/><path d="M23.709 23.042c1.473.608 3.36.973 5.42.973 4.707 0 8.523-1.909 8.523-4.262" stroke="#000" stroke-width="1.5" stroke-linecap="round"/><path d="M21.457 6.967H8.405L1 34.243h37.505l-1.155-4.256" stroke="#000" stroke-width="1.5" stroke-linecap="round" stroke-linejoin="round"/><path d="M12.08 13.786h10.23m-11.081 3.409h6.819M8.671 29.128h5.967" stroke="#000" stroke-width="1.5" stroke-linecap="round"/></svg>