<svg width="68" height="68" fill="none" xmlns="http://www.w3.org/2000/svg"><circle cx="34" cy="34" r="34" fill="#0D1B2B"/><path d="M26.839 46.28l-3.706 6.744m22.814-.001l-3.83-6.74" stroke="#fff" stroke-width="1.697" stroke-linecap="round" stroke-linejoin="round"/><path d="M24.939 50.48H44.45" stroke="#fff" stroke-width="1.5" stroke-linejoin="round"/><path clip-rule="evenodd" d="M46.147 43.692a2.545 2.545 0 01-2.545 2.545H24.94a2.545 2.545 0 01-2.546-2.545V20.787a2.545 2.545 0 012.546-2.545h18.663a2.545 2.545 0 012.545 2.545v22.905z" stroke="#fff" stroke-width="1.5" stroke-linejoin="round"/><path d="M22.393 35.209h23.754M24.939 39.45h4.241m10.18 0h4.242M22.393 22.484h23.754M22.393 24.18L19 26.725v5.09m27.148-7.592l3.393 2.502v5.09M37.664 18.242L40.209 14H28.332l2.545 4.242" stroke="#fff" stroke-width="1.5" stroke-linejoin="round"/></svg>